<?xml version="1.0" encoding="UTF-8"?>
<svg width="38px" height="38px" viewBox="0 0 38 38" version="1.1" xmlns="http://www.w3.org/2000/svg" xmlns:xlink="http://www.w3.org/1999/xlink">
    <title>ic- discord</title>
    <g id="5-1" stroke="none" stroke-width="1" fill="none" fill-rule="evenodd">
        <g id="0xvampire5" transform="translate(-1764.000000, -40.000000)">
            <g id="ic--discord" transform="translate(1764.000000, 40.000000)">
                <rect id="block" x="0" y="0" width="38" height="38"></rect>
                <g id="5" transform="translate(5.181818, 9.363636)" fill="#FFFFFF" fill-rule="nonzero">
                    <path d="M9.24929497,9.65180854 C10.6293706,9.65180854 11.7469066,10.7091576 11.723673,12.0014731 C11.723673,13.2949753 10.631694,14.3511376 9.24929497,14.3511376 C7.89245289,14.3511376 6.77491689,13.2949753 6.77491689,12.0014731 C6.77491689,10.7091576 7.86689595,9.65180854 9.24929497,9.65180854 Z M18.1012954,9.65180854 C19.4836944,9.65180854 20.5756735,10.7091576 20.5756735,12.0014731 C20.5756735,13.2949753 19.4836944,14.3511376 18.1012954,14.3511376 C16.7444534,14.3511376 15.628079,13.2949753 15.628079,12.0014731 C15.628079,10.7091576 16.7200581,9.65180854 18.1024571,9.65180854 L18.1012954,9.65180854 Z M20.3944515,20.7272727 C25.6231725,20.5552013 27.6363636,16.9773031 27.6363636,16.9773031 C27.6363636,9.03116484 24.2268333,2.59094796 24.2268333,2.59094796 C20.8231113,-0.0720051813 17.5797012,0.000190990062 17.5797012,0.000190990062 L17.2486224,0.395554309 C21.2715198,1.67837622 23.1383393,3.53081374 23.1383393,3.53081377 C20.9419019,2.26664825 18.521224,1.4614714 16.0172418,1.16216204 C14.4286362,0.979020408 12.8240709,0.994961313 11.2392526,1.20963002 C11.0963659,1.20963002 10.9778746,1.233364 10.8373113,1.25709797 C10.0090336,1.33304673 7.99584242,1.65226882 5.4657037,2.81404741 C4.59095878,3.23176556 4.06936453,3.53081377 4.06936453,3.53081377 C4.06936453,3.53081377 6.03376515,1.57869348 10.2913218,0.297058279 L10.0543391,0.000190990062 C10.0543391,0.000190990062 6.81325232,-0.0720052091 3.40720702,2.59213464 C3.40720702,2.59213464 0,9.03116481 0,16.9761164 C0,16.9761164 1.98647254,20.5528279 7.21635525,20.726086 C7.21635525,20.726086 8.08993849,19.6177089 8.8032099,18.6802165 C5.79678246,17.7403507 4.66298292,15.7656831 4.66298292,15.7656831 C4.66298292,15.7656831 4.89764226,15.9401279 5.32281708,16.1869614 C5.34605067,16.2106954 5.36928429,16.2368027 5.41691315,16.25935 C5.48893729,16.3115648 5.55979977,16.3352988 5.63182391,16.3839534 C6.22195729,16.7292829 6.81325232,17.0010371 7.35691849,17.2229498 C8.32692118,17.6181207 9.48627766,18.0132915 10.8373113,18.2850457 C12.8599503,18.6901203 14.9395849,18.698175 16.9651725,18.3087797 C18.1448738,18.093636 19.2958206,17.7379681 20.3944515,17.2490572 C21.3527593,16.8700299 22.265872,16.3811472 23.1162673,15.7917905 C23.1162673,15.7917905 21.9336772,17.8151128 18.8331537,18.7300579 C19.346206,19.402416 19.8674536,20.0682061 20.3967748,20.7272727 L20.3944515,20.7272727 L20.3944515,20.7272727 Z" id="shape"></path>
                </g>
            </g>
        </g>
    </g>
</svg>