<?xml version="1.0" encoding="UTF-8"?>
<svg width="38px" height="38px" viewBox="0 0 38 38" version="1.1" xmlns="http://www.w3.org/2000/svg" xmlns:xlink="http://www.w3.org/1999/xlink">
    <title>ic-opensea</title>
    <g id="3" stroke="none" stroke-width="1" fill="none" fill-rule="evenodd">
        <g id="0xvampire3" transform="translate(-1842.000000, -40.000000)">
            <g id="ic-opensea" transform="translate(1842.000000, 40.000000)">
                <rect id="block" x="0" y="0" width="38" height="38"></rect>
                <g id="Logo" transform="translate(6.045455, 6.909091)" fill="#FFFFFF" fill-rule="nonzero">
                    <path d="M13.7030535,3.55271368e-15 C14.053101,3.55271368e-15 14.3709145,0.138823163 14.5989296,0.364950187 C14.8268999,0.591120797 14.9696895,0.900105853 14.9696895,1.24491905 L14.9696895,3.35860523 L15.23227,3.43021793 C15.2529824,3.43697385 15.2736947,3.44590909 15.2921206,3.45933375 C15.3566337,3.50636364 15.4487185,3.57575342 15.5661781,3.66087796 C15.6583077,3.73249066 15.7573414,3.81983811 15.8770874,3.90940847 C16.1142931,4.09521793 16.3975859,4.3348132 16.7084952,4.61023661 C16.7913894,4.6796264 16.8719972,4.75128269 16.9457009,4.82293898 C17.3464534,5.18566625 17.7955346,5.61107098 18.2239036,6.08128269 C18.3436496,6.21339352 18.4611092,6.34772727 18.5808552,6.48877335 C18.7006013,6.63208593 18.8272963,6.773132 18.9378069,6.91422167 C19.0829278,7.10229763 19.2395257,7.29708593 19.3754112,7.50085305 C19.4398795,7.59713574 19.5135832,7.69564134 19.575765,7.79192403 C19.7507888,8.04938979 19.9051003,8.31587796 20.0525076,8.58232254 C20.1146895,8.70545455 20.1791578,8.83978829 20.2344355,8.97189913 C20.3979375,9.32791407 20.5269189,9.69064134 20.6098131,10.0533686 C20.6351431,10.1317372 20.6535691,10.2168182 20.6628044,10.2929639 L20.6628044,10.310878 C20.6904209,10.4183188 20.6996563,10.5325156 20.7088468,10.6489352 C20.7456986,11.0206413 20.7272727,11.3923039 20.6443785,11.7662329 C20.6098131,11.9252366 20.5637707,12.0752179 20.508493,12.2342217 C20.4532152,12.3864695 20.3979375,12.5454296 20.3265651,12.6954545 C20.1883931,13.0066625 20.0248463,13.3179141 19.8313966,13.6089851 C19.7692148,13.7164695 19.6955111,13.8306663 19.6218074,13.9381507 C19.5411996,14.0523039 19.4583054,14.1597883 19.3846018,14.2650498 C19.2832816,14.3993836 19.1750574,14.5404296 19.0645019,14.6658281 C18.9654682,14.797939 18.8641481,14.9300498 18.7535926,15.0464695 C18.5992812,15.2233437 18.4518738,15.3912827 18.2975624,15.5525093 C18.2054776,15.6577273 18.1064439,15.7652117 18.005079,15.8614944 C17.9060901,15.9689352 17.8047252,16.0652179 17.7125956,16.1547883 C17.558329,16.3048132 17.4293476,16.4212329 17.3210785,16.5175156 L17.0677782,16.7436862 C17.0309264,16.7750249 16.9825527,16.792939 16.9318927,16.792939 L14.9696895,16.792939 L14.9696895,19.2402366 L17.4385381,19.2402366 C17.9912708,19.2402366 18.5163869,19.0498941 18.9401382,18.7005915 C19.0852143,18.5774595 19.7185547,18.0445704 20.4670235,17.2407472 C20.4923535,17.2138543 20.5246325,17.1937173 20.5614843,17.1847821 L27.3807321,15.2681507 C27.5074271,15.2323225 27.6363636,15.3263387 27.6363636,15.4562267 L27.6363636,16.8601059 C27.6363636,16.9406974 27.5857036,17.0123537 27.5119999,17.0436924 C27.0606322,17.2317684 25.5152762,17.9213948 24.8727452,18.7901619 C24.6316023,19.1164713 24.3988275,19.463409 24.1682681,19.8178508 L23.8922664,20.2459431 C22.6515002,22.1810082 21.4035687,24.1818182 19.1796303,24.1818182 L7.49634413,24.1818182 C3.35553418,24.1818182 3.30402372e-13,20.9083375 3.30402372e-13,16.8690411 L3.30402372e-13,16.7391968 C3.30402372e-13,16.6317123 0.0897983213,16.5444085 0.200353818,16.5444085 L6.71335478,16.5444085 C6.84229136,16.5444085 6.93670737,16.6608281 6.9252304,16.7839601 C6.87914319,17.1959402 6.95746454,17.6168991 7.15781836,17.9997634 C7.54471777,18.7633126 8.34617787,19.2402366 9.21210627,19.2402366 L12.4363726,19.2402366 L12.4363726,16.792939 L9.2489581,16.792939 C9.08545611,16.792939 8.98875368,16.6093088 9.08316969,16.4794645 C9.11769026,16.4279452 9.15687335,16.3742466 9.19829804,16.313792 C9.50001681,15.8973225 9.93067217,15.2502366 10.3590411,14.5135803 C10.6515245,14.0165193 10.9347725,13.4858531 11.1627876,12.9529639 C11.2088748,12.8566812 11.2456818,12.758132 11.2825337,12.6618493 C11.3447155,12.4916874 11.4092286,12.3327273 11.455271,12.1737671 C11.5013582,12.0393898 11.5381652,11.8983437 11.5750171,11.7662329 C11.6832861,11.3139352 11.7293285,10.8347883 11.7293285,10.3377273 C11.7293285,10.142939 11.720138,9.93917186 11.701712,9.74438356 C11.6924767,9.5316812 11.6648602,9.31893524 11.6371989,9.10623288 C11.618773,8.91815691 11.5842524,8.73230386 11.5474006,8.53751557 C11.5013582,8.25315691 11.4368451,7.97106476 11.3631414,7.68666252 L11.3378114,7.57922167 C11.2825337,7.38438979 11.2364913,7.19858032 11.172023,7.00379203 C10.9900503,6.39249066 10.7805059,5.79692403 10.5593949,5.23940847 C10.4787871,5.01772727 10.3866576,4.80502491 10.294528,4.59232254 C10.1586873,4.27213574 10.0204705,3.98106476 9.89382033,3.70564134 C9.82935204,3.58024284 9.77407429,3.46604608 9.71879655,3.3496264 C9.65661468,3.21751557 9.59214639,3.08540473 9.52763327,2.96004981 C9.4815909,2.86376712 9.42859957,2.77419676 9.39174774,2.6846264 L8.99794422,1.97708593 C8.94266647,1.88080324 9.03479605,1.76660648 9.14302029,1.79572229 L11.607296,2.44503113 L11.6142002,2.44503113 C11.618773,2.44503113 11.6211043,2.44729763 11.6233907,2.44729763 L11.9481082,2.53460149 L12.3051048,2.63315068 L12.4363726,2.66893524 L12.4363726,1.24491905 C12.4363726,0.557515567 13.0029135,3.55271368e-15 13.7030535,3.55271368e-15 Z M7.99093661,4.43374395 C8.9579701,6.57797458 9.79238694,9.24471255 9.40147934,10.9049183 C9.23459597,11.5880041 8.77738005,12.5130803 8.26297875,13.3680603 C8.19671493,13.4924898 8.12355326,13.6146298 8.04580786,13.7322347 C8.00922703,13.786524 7.94750244,13.8181818 7.88119411,13.8181818 L1.92821962,13.8181818 C1.7681896,13.8181818 1.6744679,13.6462876 1.75906664,13.5173669 L1.85505795,13.3680603 L7.64346319,4.40886684 C7.72806193,4.27770063 7.9269424,4.29126196 7.99093661,4.43374395 Z" id="concat"></path>
                </g>
            </g>
        </g>
    </g>
</svg>