<?xml version="1.0" encoding="utf-8"?>
<svg viewBox="33.999 4.632 208.159 322.79" xmlns="http://www.w3.org/2000/svg" xmlns:bx="https://boxy-svg.com">
  <path d="M 46.873 42.032 C 48.963 38.341 55.902 37.691 58.902 39.39 C 60.392 40.234 60.594 42.602 59.361 44.781 C 58.896 45.601 58.404 46.048 57.97 46.442 C 57.573 46.803 57.23 47.114 56.894 47.706 C 56.559 48.298 56.469 48.753 56.364 49.279 C 56.249 49.854 56.119 50.506 55.655 51.326 C 54.421 53.505 52.287 54.551 50.796 53.706 C 47.796 52.008 44.783 45.723 46.873 42.032 Z M 38.649 32.514 C 39.623 30.794 42.452 30.616 45.09 32.11 C 47.728 33.603 49.031 36.121 48.057 37.841 C 47.083 39.561 44.254 39.739 41.616 38.246 C 38.978 36.752 37.675 34.235 38.649 32.514 Z M 34.48 39.877 C 35.454 38.157 38.283 37.979 40.921 39.473 C 43.559 40.966 44.862 43.484 43.888 45.204 C 42.914 46.924 40.085 47.102 37.448 45.608 C 34.809 44.115 33.506 41.597 34.48 39.877 Z M 49.523 35.557 C 48.469 33.751 48.765 31.916 49.963 31.207 C 51.172 30.491 52.908 31.182 53.979 32.934 C 55.056 34.695 54.698 36.607 53.539 37.283 C 52.355 37.974 50.569 37.348 49.523 35.557 Z M 39.18 50.251 C 39.172 48.86 40.593 47.662 42.684 47.636 C 44.758 47.611 46.214 48.821 46.231 50.192 C 46.247 51.533 44.791 52.824 42.727 52.807 C 40.674 52.789 39.189 51.656 39.18 50.251 Z M 120.619 16.443 C 121.823 12.375 128.437 10.177 131.743 11.156 C 133.386 11.642 134.116 13.904 133.405 16.305 C 133.138 17.208 132.759 17.754 132.425 18.236 C 132.119 18.678 131.855 19.059 131.662 19.711 C 131.469 20.363 131.484 20.826 131.5 21.363 C 131.518 21.949 131.539 22.614 131.271 23.517 C 130.561 25.918 128.717 27.418 127.074 26.932 C 123.768 25.953 119.416 20.51 120.619 16.443 Z M 110.461 9.025 C 111.022 7.129 113.738 6.318 116.645 7.178 C 119.552 8.038 121.389 10.197 120.828 12.093 C 120.267 13.988 117.551 14.799 114.644 13.939 C 111.738 13.079 109.9 10.92 110.461 9.025 Z M 108.06 17.138 C 108.621 15.242 111.337 14.431 114.244 15.291 C 117.151 16.151 118.988 18.31 118.427 20.206 C 117.866 22.101 115.15 22.913 112.243 22.052 C 109.337 21.192 107.499 19.033 108.06 17.138 Z M 121.741 9.536 C 120.307 8.015 120.182 6.16 121.189 5.2 C 122.205 4.23 124.052 4.511 125.491 5.976 C 126.938 7.449 127.019 9.393 126.043 10.313 C 125.046 11.253 123.164 11.046 121.741 9.536 Z M 114.978 26.185 C 114.656 24.831 115.771 23.343 117.802 22.847 C 119.817 22.355 121.509 23.205 121.834 24.537 C 122.152 25.84 121.026 27.426 119.01 27.875 C 117.006 28.321 115.303 27.552 114.978 26.185 Z M 147.484 92.854 C 151.424 91.281 157.244 95.115 158.522 98.318 C 159.157 99.909 157.833 101.882 155.507 102.811 C 154.632 103.16 153.969 103.2 153.383 103.236 C 152.848 103.269 152.385 103.297 151.753 103.55 C 151.122 103.802 150.766 104.1 150.355 104.445 C 149.906 104.822 149.397 105.249 148.522 105.598 C 146.196 106.527 143.877 106.007 143.242 104.416 C 141.964 101.214 143.545 94.426 147.484 92.854 Z M 147.023 80.284 C 148.859 79.551 151.177 81.182 152.301 83.997 C 153.424 86.813 152.866 89.592 151.03 90.325 C 149.194 91.058 146.876 89.426 145.752 86.611 C 144.629 83.796 145.187 81.016 147.023 80.284 Z M 139.164 83.42 C 141 82.687 143.319 84.318 144.442 87.134 C 145.566 89.949 145.008 92.728 143.172 93.461 C 141.336 94.194 139.017 92.563 137.894 89.747 C 136.77 86.932 137.328 84.153 139.164 83.42 Z M 153.603 89.46 C 153.91 87.392 155.289 86.145 156.667 86.341 C 158.058 86.539 158.98 88.164 158.72 90.201 C 158.459 92.249 156.983 93.516 155.656 93.319 C 154.3 93.118 153.298 91.512 153.603 89.46 Z M 136.341 94.453 C 137.205 93.363 139.064 93.317 140.71 94.605 C 142.344 95.883 142.724 97.738 141.879 98.818 C 141.052 99.874 139.11 99.972 137.51 98.666 C 135.919 97.368 135.469 95.555 136.341 94.453 Z M 230.269 120.533 C 234.507 120.714 238.243 126.598 238.095 130.043 C 238.022 131.755 236.004 133.012 233.503 132.904 C 232.562 132.864 231.94 132.629 231.391 132.421 C 230.889 132.232 230.455 132.068 229.776 132.039 C 229.096 132.009 228.65 132.135 228.134 132.282 C 227.569 132.441 226.929 132.622 225.989 132.582 C 223.487 132.474 221.585 131.049 221.658 129.338 C 221.806 125.893 226.032 120.351 230.269 120.533 Z M 235.004 108.879 C 236.979 108.964 238.424 111.403 238.294 114.431 C 238.164 117.46 236.516 119.766 234.54 119.681 C 232.565 119.596 231.12 117.157 231.25 114.129 C 231.38 111.101 233.029 108.795 235.004 108.879 Z M 226.551 108.517 C 228.526 108.601 229.971 111.04 229.841 114.068 C 229.711 117.097 228.062 119.403 226.087 119.318 C 224.112 119.233 222.667 116.795 222.797 113.766 C 222.927 110.738 224.576 108.432 226.551 108.517 Z M 237.242 119.947 C 238.37 118.187 240.139 117.616 241.315 118.36 C 242.503 119.111 242.677 120.971 241.605 122.722 C 240.526 124.483 238.66 125.033 237.531 124.309 C 236.377 123.569 236.122 121.693 237.242 119.947 Z M 219.45 117.421 C 220.686 116.781 222.399 117.502 223.373 119.352 C 224.339 121.188 223.924 123.035 222.711 123.673 C 221.524 124.298 219.712 123.59 218.788 121.743 C 217.87 119.906 218.203 118.068 219.45 117.421 Z M 183.731 179.284 C 186.73 182.283 185.504 189.144 183.066 191.582 C 181.855 192.793 179.519 192.355 177.748 190.585 C 177.082 189.919 176.783 189.325 176.519 188.801 C 176.277 188.322 176.068 187.908 175.587 187.427 C 175.107 186.946 174.693 186.738 174.213 186.496 C 173.689 186.232 173.096 185.933 172.43 185.267 C 170.659 183.496 170.221 181.16 171.433 179.949 C 173.871 177.511 180.731 176.284 183.731 179.284 Z M 195.098 173.899 C 196.496 175.297 195.912 178.071 193.769 180.215 C 191.625 182.358 188.851 182.942 187.453 181.544 C 186.056 180.146 186.64 177.372 188.783 175.229 C 190.926 173.085 193.7 172.501 195.098 173.899 Z M 189.115 167.916 C 190.513 169.314 189.929 172.088 187.786 174.232 C 185.642 176.375 182.868 176.959 181.471 175.561 C 180.073 174.163 180.657 171.389 182.8 169.246 C 184.944 167.102 187.718 166.518 189.115 167.916 Z M 189.264 183.567 C 191.285 183.033 192.975 183.808 193.338 185.151 C 193.705 186.508 192.576 187.996 190.602 188.561 C 188.617 189.129 186.87 188.273 186.528 186.976 C 186.177 185.651 187.258 184.096 189.264 183.567 Z M 177.863 169.676 C 179.207 170.04 179.982 171.729 179.448 173.751 C 178.919 175.757 177.364 176.837 176.038 176.487 C 174.742 176.145 173.885 174.398 174.454 172.413 C 175.019 170.439 176.507 169.309 177.863 169.676 Z M 188.124 265.071 C 191.798 267.192 192.389 274.137 190.665 277.123 C 189.808 278.606 187.439 278.788 185.27 277.536 C 184.455 277.065 184.012 276.569 183.621 276.131 C 183.264 275.731 182.955 275.385 182.366 275.045 C 181.777 274.705 181.323 274.611 180.798 274.501 C 180.223 274.381 179.572 274.246 178.757 273.775 C 176.588 272.523 175.561 270.38 176.417 268.897 C 178.141 265.91 184.451 262.951 188.124 265.071 Z M 197.711 256.928 C 199.423 257.917 199.577 260.748 198.061 263.372 C 196.545 265.998 194.017 267.28 192.305 266.292 C 190.593 265.302 190.439 262.472 191.955 259.847 C 193.47 257.222 195.999 255.94 197.711 256.928 Z M 190.383 252.698 C 192.095 253.686 192.249 256.517 190.734 259.142 C 189.218 261.767 186.69 263.049 184.978 262.061 C 183.266 261.072 183.112 258.241 184.627 255.616 C 186.143 252.991 188.671 251.709 190.383 252.698 Z M 194.577 267.776 C 196.392 266.738 198.224 267.049 198.923 268.252 C 199.628 269.468 198.923 271.198 197.162 272.254 C 195.392 273.317 193.483 272.942 192.817 271.778 C 192.135 270.588 192.777 268.807 194.577 267.776 Z M 179.97 257.31 C 181.362 257.313 182.548 258.745 182.555 260.835 C 182.563 262.91 181.341 264.355 179.97 264.361 C 178.629 264.366 177.35 262.9 177.385 260.835 C 177.42 258.782 178.565 257.307 179.97 257.31 Z M 57.324 315.848 C 58.505 319.922 54.124 325.341 50.812 326.301 C 49.166 326.779 47.331 325.269 46.634 322.864 C 46.371 321.959 46.395 321.294 46.416 320.709 C 46.436 320.172 46.453 319.709 46.263 319.056 C 46.073 318.402 45.812 318.02 45.508 317.577 C 45.177 317.093 44.801 316.545 44.538 315.64 C 43.841 313.235 44.584 310.978 46.229 310.5 C 49.541 309.54 56.143 311.774 57.324 315.848 Z M 69.879 316.612 C 70.429 318.51 68.58 320.659 65.669 321.503 C 62.758 322.348 60.046 321.522 59.495 319.623 C 58.945 317.724 60.795 315.576 63.705 314.731 C 66.617 313.887 69.328 314.713 69.879 316.611 Z M 67.523 308.485 C 68.073 310.385 66.223 312.533 63.313 313.377 C 60.401 314.221 57.69 313.395 57.139 311.497 C 56.589 309.598 58.438 307.449 61.349 306.605 C 64.26 305.761 66.972 306.587 67.523 308.485 Z M 60.106 322.268 C 62.134 322.775 63.241 324.268 62.912 325.621 C 62.579 326.986 60.872 327.745 58.871 327.289 C 56.857 326.829 55.74 325.237 56.065 323.936 C 56.398 322.606 58.094 321.765 60.106 322.268 Z M 56.816 304.602 C 57.818 305.568 57.682 307.422 56.24 308.936 C 54.809 310.438 52.926 310.634 51.934 309.689 C 50.963 308.763 51.054 306.82 52.51 305.355 C 53.956 303.898 55.805 303.626 56.816 304.602 Z M 112.632 257.534 C 113.73 261.631 109.238 266.96 105.907 267.852 C 104.252 268.296 102.448 266.748 101.8 264.33 C 101.557 263.42 101.594 262.756 101.627 262.17 C 101.658 261.635 101.684 261.172 101.508 260.515 C 101.332 259.858 101.078 259.47 100.784 259.021 C 100.462 258.531 100.098 257.975 99.854 257.065 C 99.206 254.646 99.994 252.405 101.649 251.961 C 104.98 251.068 111.534 253.437 112.632 257.534 Z M 125.169 258.554 C 125.681 260.464 123.788 262.574 120.86 263.359 C 117.932 264.144 115.238 263.262 114.726 261.353 C 114.214 259.443 116.107 257.333 119.035 256.548 C 121.963 255.764 124.657 256.645 125.169 258.555 Z M 122.979 250.382 C 123.491 252.292 121.598 254.402 118.67 255.186 C 115.742 255.971 113.048 255.09 112.536 253.18 C 112.024 251.27 113.917 249.16 116.845 248.376 C 119.773 247.591 122.467 248.472 122.979 250.382 Z M 115.282 264.01 C 117.3 264.558 118.376 266.074 118.019 267.42 C 117.658 268.777 115.936 269.502 113.944 269.004 C 111.941 268.504 110.856 266.889 111.208 265.594 C 111.568 264.271 113.28 263.465 115.282 264.01 Z M 112.354 246.28 C 113.336 247.266 113.163 249.117 111.69 250.601 C 110.228 252.073 108.342 252.231 107.369 251.266 C 106.417 250.321 106.549 248.38 108.033 246.945 C 109.51 245.518 111.363 245.285 112.354 246.28 Z" fill="#FF5B2E" transform="matrix(-1, 0, 0, -1, 276.315857, 332.053619)" bx:origin="0.49962 0.5"/>
</svg>