<svg width="100" height="95" fill="none" xmlns="http://www.w3.org/2000/svg">
    <path d="M99.328 45.913c-.036-.684-.067-1.35-.103-2.05 0-.19.04-.374.058-.563.018-.189.077-.337.117-.508-.17-.535.036-1.196-.535-1.596a.899.899 0 00-.162-.45c.016-.153.048-.303.094-.45-1.026-.62-.9-1.713-1.09-2.698-.45-.216-.45-.62-.45-1.02-.553-.387-.422-1.04-.598-1.57-.562-.35-.49-.9-.481-1.448l-.45-.157V32.39a1.21 1.21 0 00-.378-.045c-.045-.328-.09-.661-.131-.99a2.113 2.113 0 01-.392-.161c-.063-.275-.121-.554-.18-.828-.9-.647-1.201-1.677-1.724-2.572l-.328-.553a1.066 1.066 0 01-.563-1.017 1.004 1.004 0 01-.54-1.034l-.58-.562a1.19 1.19 0 00-.081-.45l-.329-.535a1.107 1.107 0 01-.536-1.056l-.868-.612h-.045l-.585-.998c-.847-1.35-1.607-2.816-3.074-3.665l-.748-1.462-.9-.967a1.293 1.293 0 00-.49-.045c-.45-.45-.716-1.124-1.486-1.155-.612-.657-1.08-1.493-2.097-1.624l-.689-.877-.45-.382a2.502 2.502 0 01-1.553-1.17l-1.944-.741-.585-.364-.657-.9c-.387-.099-.783-.18-.968-.602l-2.003-.63-1.17-.859a1.801 1.801 0 01-1.458-.638l-2.066-.495c-1.463-.774-2.957-1.403-4.672-1.133l-.572-.392a5.607 5.607 0 00-3.663-.899L52.96.71c-1.593.45-2.993 1.088-4.604.535a3.342 3.342 0 00-2.012.193 2.671 2.671 0 01-1.728-.031 4.825 4.825 0 00-1.274 0 5.788 5.788 0 01-3.15.486c-.302.377-.72.355-1.148.364-.747 0-1.535-.104-2.147.504l-4.001.647-1.094.603a1.067 1.067 0 00-1.071.296l-2.53.113-.62.44-1.46.064c-.39.544-.985.494-1.552.526-.396.526-.986.485-1.544.535a1 1 0 01-1.053.45c-.207.184-.414.368-.617.557-.153.45-.53.54-.954.517l-.562.517a.9.9 0 01-1 .54l-.508.5c-.45.836-1.071 1.474-2.084 1.582l-.414.517c-.338.351-.675.702-1.017 1.048a1.137 1.137 0 01-1.144 1.03 1.61 1.61 0 01-1.057 1.016 1.183 1.183 0 01-1 .567 6.675 6.675 0 01-2.079 2.653.921.921 0 01-.067.414 1.622 1.622 0 01-.968 1.583 1.016 1.016 0 01-.554 1.02c-.18.513-.364 1.021-.549 1.53l-.189.948-.333 1.655c-.936.41-1.107 1.192-1.013 2.1-.234.45-.45.832-.13 1.35.108.18.04.449.058.705.018.157.018.316 0 .472-.526.666-1.044 1.35-1.58 1.992a1.96 1.96 0 00-.36 1.7c-.03.158-.058.32-.085.477-.157.175-.45.35-.45.53 0 .9.04 1.83.077 2.928-.131.373-.694.45-1.112.684a1.21 1.21 0 00-.509 1.079l-.567.027c0 .971.666 1.677.963 2.532l-1.323.22a8.894 8.894 0 01-.27 1.286 6.555 6.555 0 00-.09 4.538c.133.59.196 1.193.189 1.798l-.027.5a.643.643 0 00-.37.76c.118.45.244.899.37 1.349.045.719-.266 1.533.531 2.06.059.395.068.818.5 1.029.036 1.21.067 2.42.103 3.633.032.68.023 1.35.113 2.042.09.692.279 1.35.423 2.024.13.003.256.05.355.134.567 1.628.964 3.328 2.102 4.7a8.309 8.309 0 002.008 3.584c.247 1.524 1.291 2.595 2.29 3.597a36.8 36.8 0 013.25 3.913c.351.472.783.9 1.18 1.322.396.949.639 1.992 1.647 2.545l.495.553 1.206 1.39c.835.209 1.613.6 2.277 1.146.588.509 1.24.937 1.94 1.273 2.165.864 4.051 2.222 6.045 3.377a18.864 18.864 0 006.274 2.118c.329.513.9.45 1.382.562 3.439.77 6.751 2.249 10.352 2.078a4.22 4.22 0 002.53.05 3.266 3.266 0 011.53.08 2.788 2.788 0 001.755-.076c.738-.225 1.512-.333 2.25-.49.865.544 1.661-.068 2.49-.14.342-.027.693 0 1.04 0 .476-.692.9-1.236 1.957-1.304a4.921 4.921 0 003.191-1.461c.9-.931 1.998-1.178 3.187-1.309l.819.931a37.424 37.424 0 005.176-2.311c.563-.873 1.45-.756 2.3-.774l.53-.508a1 1 0 001.04-.513c.109-.216.235-.427.325-.647a1.385 1.385 0 011.539-.9h2.245a1.184 1.184 0 001.086-.508h-.531c-.338-.66-.415-1.272.292-1.7l.68.275c.076-.513.135-.936.202-1.394.387-.23.752-.45 1.125-.657.739-.41 1.571-.647 2.035-1.488.463-.841 1.656-.293 2.129-1.178.14-.266.54-.396.823-.585l.45-.603c.428-.715 1.157-.9 1.89-1.097.64-.193 1.248-.54 1.288-1.349 1.148-.26 1.962-.855 2.088-2.118.153-.019.303-.049.45-.09.144-.17.293-.337.45-.504.226-.251.406-.602.685-.728a3.546 3.546 0 001.872-1.97c.18-.466.493-.87.9-1.16 1.526-.9 2.03-2.163 1.8-3.827-.148-.292-.45-.585-.422-.868a8.664 8.664 0 00-1.103-4.362c.036-.638.45-1.3-.153-1.925.9-.512 1.445-1.12 1.022-2.28a2.628 2.628 0 01.053-1.722c.207-.517.739-.9 1.13-1.349l-.022-2.077.094-2.065c.027-.732.01-1.43-.009-2.122z" fill="#FF5B2E"/>
    <path d="M81.19 29.703a.75.75 0 00-.286-.456c-1.59-1.233-5.35-6.205-7.82-5.381-3.446 1.151-22.385 25.55-26.583 30.927-1.466-2.052-13.678-18.455-14.29-18.087-2.1 1.256-4.265 2.33-6.27 3.747a.868.868 0 00-.373.576.914.914 0 00-.343.981c1.72 6.843 7.572 12.232 11.75 17.621 2.427 3.13 5.81 11.009 10.371 7.29.078-.065.125-.137.176-.211.895-.358 1.661-1.054 2.464-1.9 3.476-3.667 6.536-7.695 9.762-11.58 3.447-4.153 7.271-8.04 11.058-11.875 3.306-3.349 6.243-7.782 10.14-10.4.487-.33.488-.873.244-1.252zM36.174 41.777a62.02 62.02 0 00-3.408-2.752 16.86 16.86 0 013.408 2.752zm-5.24.786a.788.788 0 00-.734-.208 6.881 6.881 0 01-.342-1.23.91.91 0 00-.348-.59c.07-.051.134-.102.207-.153.012.19.082.38.23.554 2.64 3.059 5.616 5.79 8.3 8.807.308.348.61.698.912 1.047-2.852-2.646-5.367-5.596-8.225-8.227zm10.699 20.425c.266.3.531.602.803.897.315.421.634.842.963 1.258l.004.014c-.646-.57-1.239-1.373-1.77-2.17zm.854-6.67c.783.675 1.602 1.32 2.462 1.837a.944.944 0 00.023.391c.01.056.034.112.056.167a79.635 79.635 0 00-2.54-2.396zm3.806 8.79c-.002-.008-.001-.016-.005-.022-.028-.063-.06-.118-.088-.18.797-.009 1.842-.589 2.988-1.491-1.013.935-2.014 1.595-2.895 1.693zm27.166-39.056c-.744.317-1.364.807-1.918 1.382.548-.767 1.13-1.357 1.918-1.382zm-18.411 23.61c-.444.457-1.24 1.148-2.199 1.995.848-.83 1.727-1.619 2.516-2.407 2.576-2.564 4.57-5.708 6.649-8.714 2.357-2.266 4.8-4.422 7.054-6.804 1.482-1.569 2.395-4.084 4.128-5.424-1.155 1.194-2.068 2.917-2.847 4.574-1.236 1.275-2.329 2.716-3.475 4.112-3.64 4.438-7.828 8.56-11.826 12.669zm15.228-10.61c-1.834 2.175-3.892 4.156-5.849 6.224 1.477-1.813 2.943-3.634 4.29-5.554.105-.151.233-.364.374-.625.473-.463.946-.926 1.41-1.397 1.344-1.37 2.942-2.877 3.922-4.63.782-1.03 1.64-2.053 2.608-2.668-1.404 3.119-4.807 6.34-6.755 8.65z" fill="white"/>
</svg>
