<svg width="348" height="74" fill="none" xmlns="http://www.w3.org/2000/svg">
    <path d="M81.688 15.866c-1.34-4.025 2.829-9.61 6.1-10.699 1.626-.54 3.519.897 4.31 3.273.296.894.298 1.558.3 2.145.001.537.003 1 .217 1.646.215.645.492 1.017.812 1.448.35.47.747 1.004 1.044 1.897.79 2.376.137 4.661-1.49 5.202-3.27 1.088-9.954-.887-11.293-4.912zM69.112 15.591c-.624-1.875 1.14-4.095 4.017-5.051 2.876-.957 5.618-.237 6.242 1.638.624 1.876-1.14 4.095-4.016 5.052-2.877.957-5.619.237-6.243-1.639zM71.783 23.62c-.624-1.876 1.14-4.095 4.017-5.052 2.876-.957 5.618-.237 6.242 1.639.624 1.876-1.14 4.095-4.017 5.052-2.876.956-5.618.236-6.242-1.64zM78.658 9.56c-2.047-.429-3.21-1.878-2.934-3.242.28-1.377 1.955-2.202 3.973-1.824 2.03.381 3.208 1.929 2.934 3.242-.28 1.342-1.942 2.248-3.973 1.823zM82.633 27.084c-1.039-.926-.975-2.784.407-4.353 1.371-1.556 3.245-1.826 4.274-.92 1.006.887.99 2.832-.407 4.353-1.39 1.512-3.226 1.855-4.274.92zM14.77 58.603c1.2-4.069 7.812-6.273 11.12-5.297 1.643.484 2.375 2.745 1.667 5.147-.266.903-.645 1.45-.979 1.932-.305.442-.569.823-.761 1.475-.192.653-.178 1.116-.16 1.653.018.586.039 1.25-.227 2.154-.709 2.402-2.55 3.903-4.194 3.419-3.307-.975-7.665-6.414-6.465-10.483zM4.605 51.195c.56-1.896 3.275-2.71 6.183-1.853 2.907.858 4.746 3.015 4.187 4.91-.559 1.897-3.274 2.71-6.182 1.853-2.907-.857-4.747-3.014-4.188-4.91zM2.212 59.31c.56-1.896 3.275-2.71 6.182-1.852 2.908.857 4.747 3.014 4.188 4.91-.559 1.896-3.274 2.71-6.182 1.853-2.907-.858-4.747-3.014-4.188-4.91zM15.886 51.696c-1.435-1.52-1.563-3.375-.557-4.337 1.016-.97 2.863-.69 4.303.773 1.449 1.471 1.532 3.415.557 4.336-.997.941-2.879.736-4.303-.772zM9.14 68.35c-.324-1.353.79-2.842 2.82-3.34 2.014-.494 3.707.355 4.033 1.686.32 1.303-.805 2.89-2.82 3.34-2.004.448-3.707-.319-4.034-1.685zM207.037 15.866c-1.339-4.025 2.829-9.61 6.101-10.699 1.625-.54 3.518.897 4.309 3.273.297.894.299 1.558.3 2.145.002.537.003 1 .218 1.646.214.645.491 1.017.812 1.448.35.47.746 1.004 1.044 1.897.79 2.376.136 4.661-1.49 5.202-3.271 1.088-9.955-.887-11.294-4.912zM194.462 15.591c-.624-1.875 1.14-4.095 4.016-5.051 2.876-.957 5.618-.237 6.242 1.638.624 1.876-1.14 4.095-4.016 5.052-2.876.957-5.618.237-6.242-1.639zM197.133 23.62c-.624-1.876 1.14-4.095 4.016-5.052 2.876-.957 5.618-.237 6.242 1.639.624 1.876-1.14 4.095-4.016 5.052-2.876.956-5.618.236-6.242-1.64zM204.007 9.56c-2.046-.429-3.21-1.878-2.933-3.242.279-1.377 1.955-2.202 3.973-1.824 2.029.381 3.208 1.929 2.933 3.242-.28 1.342-1.942 2.248-3.973 1.823zM207.982 27.084c-1.038-.926-.975-2.784.407-4.353 1.372-1.556 3.246-1.826 4.274-.92 1.006.887.99 2.832-.407 4.353-1.389 1.512-3.226 1.855-4.274.92zM140.12 58.603c1.2-4.069 7.811-6.273 11.119-5.297 1.643.484 2.375 2.745 1.667 5.147-.266.903-.644 1.45-.978 1.932-.306.442-.569.823-.762 1.475-.192.653-.177 1.116-.16 1.653.018.586.039 1.25-.227 2.154-.708 2.402-2.55 3.903-4.194 3.419-3.307-.975-7.665-6.414-6.465-10.483zM129.955 51.195c.559-1.896 3.274-2.71 6.182-1.853 2.907.858 4.747 3.015 4.188 4.91-.559 1.897-3.275 2.71-6.182 1.853-2.908-.857-4.747-3.014-4.188-4.91zM127.562 59.31c.559-1.896 3.274-2.71 6.182-1.852 2.907.857 4.747 3.014 4.188 4.91-.56 1.896-3.275 2.71-6.183 1.853-2.907-.858-4.746-3.014-4.187-4.91zM141.235 51.696c-1.435-1.52-1.562-3.375-.556-4.337 1.015-.97 2.862-.69 4.303.773 1.448 1.471 1.531 3.415.556 4.336-.996.941-2.878.736-4.303-.772zM134.489 68.35c-.324-1.353.789-2.842 2.82-3.34 2.015-.494 3.707.355 4.034 1.686.319 1.303-.806 2.89-2.821 3.34-2.004.448-3.707-.319-4.033-1.685zM334.011 17.21c-.589-4.2 4.522-8.94 7.937-9.417 1.696-.238 3.297 1.519 3.645 3.998.13.933.012 1.587-.093 2.165-.096.528-.178.984-.084 1.657.094.674.299 1.09.536 1.571.259.527.553 1.123.684 2.056.347 2.48-.71 4.608-2.407 4.846-3.415.478-9.63-2.675-10.218-6.876zM321.693 14.663c-.274-1.958 1.863-3.82 4.865-4.24 3.001-.421 5.568.783 5.842 2.741.274 1.958-1.863 3.82-4.865 4.241-3.002.42-5.568-.784-5.842-2.742zM322.866 23.043c-.274-1.958 1.863-3.821 4.865-4.241 3.002-.42 5.568.784 5.842 2.741.274 1.958-1.863 3.821-4.864 4.241-3.002.42-5.569-.784-5.843-2.741zM332.173 10.46c-1.935-.792-2.818-2.428-2.299-3.72.524-1.303 2.322-1.812 4.238-1.074 1.927.742 2.806 2.477 2.298 3.719-.518 1.269-2.317 1.86-4.237 1.074zM332.909 28.414c-.854-1.1-.455-2.915 1.189-4.207 1.63-1.283 3.522-1.21 4.369-.131.829 1.054.461 2.964-1.188 4.207-1.64 1.235-3.508 1.24-4.37.13zM273.822 60.3c.597-4.2 6.819-7.339 10.233-6.853 1.696.241 2.749 2.372 2.396 4.851-.133.932-.428 1.528-.688 2.054-.238.481-.444.897-.54 1.57-.095.673-.014 1.13.081 1.658.103.577.221 1.232.088 2.164-.353 2.48-1.957 4.232-3.654 3.991-3.413-.485-8.514-5.235-7.916-9.435zM262.69 54.444c.278-1.957 2.847-3.156 5.848-2.73 3.001.428 5.134 2.295 4.855 4.252-.278 1.957-2.847 3.156-5.848 2.73-3.001-.427-5.134-2.295-4.855-4.252zM261.499 62.82c.278-1.956 2.847-3.155 5.848-2.728 3.001.427 5.134 2.294 4.855 4.251-.278 1.957-2.847 3.156-5.848 2.73-3.001-.427-5.134-2.295-4.855-4.252zM273.924 53.304c-1.641-1.296-2.036-3.112-1.18-4.21.864-1.107 2.733-1.098 4.37.14 1.646 1.247 2.01 3.158 1.179 4.21-.849 1.077-2.741 1.146-4.369-.14zM269.663 70.761c-.516-1.292.369-2.926 2.306-3.713 1.922-.782 3.72-.187 4.236 1.083.504 1.243-.378 2.976-2.307 3.714-1.917.733-3.714.221-4.235-1.084z" fill="#FF5B2E"/>
</svg>
