<svg width="270" height="347" fill="none" xmlns="http://www.w3.org/2000/svg">
    <path d="M46.72 290.022c2.09 3.691 9.029 4.341 12.029 2.642 1.49-.844 1.692-3.212.459-5.391-.465-.82-.957-1.267-1.391-1.661-.397-.361-.74-.672-1.076-1.264-.335-.592-.425-1.047-.53-1.573-.115-.575-.245-1.227-.709-2.047-1.234-2.179-3.368-3.225-4.859-2.38-3 1.698-6.013 7.983-3.923 11.674zM38.496 299.54c.974 1.72 3.803 1.898 6.441.404 2.638-1.493 3.941-4.011 2.967-5.731-.974-1.72-3.803-1.898-6.441-.405-2.638 1.494-3.941 4.011-2.967 5.732zM34.327 292.177c.974 1.72 3.803 1.898 6.441.404 2.638-1.493 3.941-4.011 2.967-5.731-.974-1.72-3.803-1.898-6.44-.404-2.639 1.493-3.942 4.011-2.968 5.731zM49.37 296.497c-1.054 1.806-.758 3.641.44 4.35 1.209.716 2.945.025 4.016-1.727 1.077-1.761.719-3.673-.44-4.349-1.184-.691-2.97-.065-4.016 1.726zM39.027 281.803c-.008 1.391 1.413 2.589 3.504 2.615 2.074.025 3.53-1.185 3.547-2.556.016-1.341-1.44-2.632-3.504-2.615-2.053.018-3.538 1.151-3.547 2.556zM120.466 315.611c1.204 4.068 7.818 6.266 11.124 5.287 1.643-.486 2.373-2.748 1.662-5.149-.267-.903-.646-1.449-.98-1.931-.306-.442-.57-.823-.763-1.475-.193-.652-.178-1.115-.162-1.652.018-.586.039-1.251-.229-2.154-.71-2.401-2.554-3.901-4.197-3.415-3.306.979-7.658 6.422-6.455 10.489zM110.308 323.029c.561 1.896 3.277 2.707 6.184 1.847 2.907-.86 4.744-3.019 4.183-4.915-.561-1.895-3.277-2.706-6.184-1.846-2.906.86-4.744 3.019-4.183 4.914zM107.907 314.916c.561 1.896 3.277 2.707 6.184 1.847 2.907-.86 4.744-3.019 4.183-4.915-.561-1.895-3.277-2.707-6.184-1.846-2.906.86-4.744 3.019-4.183 4.914zM121.588 322.518c-1.434 1.521-1.559 3.376-.552 4.336 1.016.97 2.863.689 4.302-.776 1.447-1.473 1.528-3.417.552-4.337-.997-.94-2.879-.733-4.302.777zM114.825 305.869c-.322 1.354.793 2.842 2.824 3.338 2.015.492 3.707-.358 4.032-1.69.318-1.303-.808-2.889-2.824-3.338-2.004-.446-3.707.323-4.032 1.69zM147.331 239.2c3.94 1.573 9.76-2.261 11.038-5.464.635-1.591-.689-3.564-3.015-4.493-.875-.349-1.538-.389-2.124-.425-.535-.033-.998-.061-1.63-.314-.631-.252-.987-.55-1.398-.895-.449-.377-.958-.804-1.833-1.153-2.326-.929-4.645-.409-5.28 1.182-1.278 3.202.303 9.99 4.242 11.562zM146.87 251.77c1.836.733 4.154-.898 5.278-3.713 1.123-2.816.565-5.595-1.271-6.328-1.836-.733-4.154.899-5.278 3.714-1.123 2.815-.565 5.595 1.271 6.327zM139.011 248.634c1.836.733 4.155-.898 5.278-3.714 1.124-2.815.566-5.594-1.27-6.327-1.836-.733-4.155.898-5.278 3.714-1.124 2.815-.566 5.594 1.27 6.327zM153.45 242.594c.307 2.068 1.686 3.315 3.064 3.119 1.391-.198 2.313-1.823 2.053-3.86-.261-2.048-1.737-3.315-3.064-3.118-1.356.201-2.358 1.807-2.053 3.859zM136.188 237.601c.864 1.09 2.723 1.136 4.369-.152 1.634-1.278 2.014-3.133 1.169-4.213-.827-1.056-2.769-1.154-4.369.152-1.591 1.298-2.041 3.111-1.169 4.213zM230.116 211.521c4.238-.181 7.974-6.065 7.826-9.51-.073-1.712-2.091-2.969-4.592-2.861-.941.04-1.563.275-2.112.483-.502.189-.936.353-1.615.382-.68.03-1.126-.096-1.642-.243-.565-.159-1.205-.34-2.145-.3-2.502.108-4.404 1.533-4.331 3.244.148 3.445 4.374 8.987 8.611 8.805zM234.851 223.175c1.975-.085 3.42-2.524 3.29-5.552-.13-3.029-1.778-5.335-3.754-5.25-1.975.085-3.42 2.524-3.29 5.552.13 3.028 1.779 5.334 3.754 5.25zM226.398 223.537c1.975-.084 3.42-2.523 3.29-5.551-.13-3.029-1.779-5.335-3.754-5.25-1.975.085-3.42 2.523-3.29 5.552.13 3.028 1.779 5.334 3.754 5.249zM237.089 212.107c1.128 1.76 2.897 2.331 4.073 1.587 1.188-.751 1.362-2.611.29-4.362-1.079-1.761-2.945-2.311-4.074-1.587-1.154.74-1.409 2.616-.289 4.362zM219.297 214.633c1.236.64 2.949-.081 3.923-1.931.966-1.836.551-3.683-.662-4.321-1.187-.625-2.999.083-3.923 1.93-.918 1.837-.585 3.675.662 4.322zM183.578 152.77c2.999-2.999 1.773-9.86-.665-12.298-1.211-1.211-3.547-.773-5.318.997-.666.666-.965 1.26-1.229 1.784-.242.479-.451.893-.932 1.374-.48.481-.894.689-1.374.931-.524.264-1.117.563-1.783 1.229-1.771 1.771-2.209 4.107-.997 5.318 2.438 2.438 9.298 3.665 12.298.665zM194.945 158.155c1.398-1.398.814-4.172-1.329-6.316-2.144-2.143-4.918-2.727-6.316-1.329-1.397 1.398-.813 4.172 1.33 6.315 2.143 2.144 4.917 2.728 6.315 1.33zM188.962 164.138c1.398-1.398.814-4.172-1.329-6.316-2.144-2.143-4.918-2.727-6.315-1.329-1.398 1.398-.814 4.172 1.329 6.315 2.144 2.144 4.918 2.728 6.315 1.33zM189.111 148.487c2.021.534 3.711-.241 4.074-1.584.367-1.357-.762-2.845-2.736-3.41-1.985-.568-3.732.288-4.074 1.585-.351 1.325.73 2.88 2.736 3.409zM177.71 162.378c1.344-.364 2.119-2.053 1.585-4.075-.529-2.006-2.084-3.086-3.41-2.736-1.296.342-2.153 2.089-1.584 4.074.565 1.974 2.053 3.104 3.409 2.737zM187.971 66.983c3.674-2.121 4.265-9.066 2.541-12.052-.857-1.483-3.226-1.665-5.395-.413-.815.471-1.258.967-1.649 1.405-.357.4-.666.746-1.255 1.086-.589.34-1.043.434-1.568.544-.575.12-1.226.255-2.041.726-2.169 1.252-3.196 3.395-2.34 4.878 1.724 2.987 8.034 5.946 11.707 3.826zM197.558 75.126c1.712-.989 1.866-3.82.35-6.444-1.516-2.626-4.044-3.908-5.756-2.92-1.712.99-1.866 3.82-.35 6.445 1.515 2.625 4.044 3.907 5.756 2.919zM190.23 79.356c1.712-.988 1.866-3.819.351-6.444-1.516-2.625-4.044-3.907-5.756-2.919-1.712.989-1.866 3.82-.351 6.445 1.516 2.625 4.044 3.907 5.756 2.918zM194.424 64.278c1.815 1.038 3.647.727 4.346-.476.705-1.216 0-2.946-1.761-4.002-1.77-1.063-3.679-.688-4.345.476-.682 1.19-.04 2.971 1.76 4.002zM179.817 74.744c1.392-.003 2.578-1.435 2.585-3.525.008-2.075-1.214-3.52-2.585-3.526-1.341-.005-2.62 1.461-2.585 3.526.035 2.053 1.18 3.528 2.585 3.525zM57.171 16.206c1.181-4.074-3.2-9.493-6.512-10.453-1.646-.478-3.481 1.032-4.178 3.437-.263.905-.239 1.57-.218 2.155.02.537.037 1-.153 1.653-.19.654-.451 1.036-.755 1.479-.331.484-.707 1.032-.97 1.937-.697 2.405.046 4.662 1.691 5.14 3.312.96 9.914-1.274 11.095-5.348zM69.726 15.442c.55-1.898-1.299-4.047-4.21-4.891-2.911-.845-5.623-.019-6.174 1.88-.55 1.899 1.3 4.047 4.21 4.892 2.912.844 5.623.018 6.174-1.88zM67.37 23.569c.55-1.9-1.3-4.048-4.21-4.892-2.912-.844-5.623-.018-6.174 1.88-.55 1.899 1.299 4.048 4.21 4.892 2.911.844 5.623.018 6.174-1.88zM59.953 9.786c2.028-.507 3.135-2 2.806-3.353-.333-1.365-2.04-2.124-4.041-1.668-2.014.46-3.131 2.052-2.806 3.353.333 1.33 2.029 2.171 4.041 1.668zM56.663 27.452c1.002-.966.866-2.82-.576-4.334-1.431-1.502-3.314-1.698-4.306-.753-.971.926-.88 2.869.576 4.334 1.446 1.457 3.295 1.729 4.306.753zM112.479 74.52c1.098-4.097-3.394-9.426-6.725-10.318-1.655-.444-3.459 1.104-4.107 3.522-.243.91-.206 1.574-.173 2.16.031.535.057.998-.119 1.655s-.43 1.045-.724 1.494c-.322.49-.686 1.046-.93 1.956-.648 2.419.14 4.66 1.795 5.104 3.331.893 9.885-1.476 10.983-5.573zM125.016 73.5c.512-1.91-1.381-4.02-4.309-4.805-2.928-.785-5.622.097-6.134 2.006-.512 1.91 1.381 4.02 4.309 4.805 2.928.784 5.622-.097 6.134-2.007zM122.826 81.672c.512-1.91-1.381-4.02-4.309-4.804-2.928-.785-5.622.096-6.134 2.006-.512 1.91 1.381 4.02 4.309 4.804 2.928.785 5.622-.096 6.134-2.006zM115.129 68.044c2.018-.548 3.094-2.064 2.737-3.41-.361-1.357-2.083-2.082-4.075-1.584-2.003.5-3.088 2.115-2.736 3.41.36 1.323 2.072 2.129 4.074 1.584zM112.201 85.774c.982-.986.809-2.837-.664-4.321-1.462-1.472-3.348-1.63-4.321-.665-.952.945-.82 2.886.664 4.321 1.477 1.427 3.33 1.66 4.321.665z" fill="#FF5B2E"/>
</svg>
