<?xml version="1.0" encoding="UTF-8"?>
<svg width="38px" height="38px" viewBox="0 0 38 38" version="1.1" xmlns="http://www.w3.org/2000/svg" xmlns:xlink="http://www.w3.org/1999/xlink">
    <title>ic-twitter</title>
    <g id="1" stroke="none" stroke-width="1" fill="none" fill-rule="evenodd">
        <g id="0xvampire" transform="translate(-1686.000000, -40.000000)">
            <g id="ic-twitter" transform="translate(1686.000000, 40.000000)">
                <rect id="block" x="0" y="0" width="38" height="38"></rect>
                <g id="row" transform="translate(7.772727, 8.636364)" fill="#FFFFFF" fill-rule="nonzero">
                    <path d="M20.9302449,5.22602017 C21.8652986,4.50358645 22.6765422,3.59926924 23.3181818,2.56447195 C22.4468166,2.97101391 21.519596,3.23404551 20.5699958,3.3440704 C21.5583354,2.71341664 22.3162931,1.7048287 22.6744472,0.494475953 C21.7490488,1.07639448 20.725413,1.49243848 19.63706,1.70922054 C18.7650158,0.680326255 17.5205624,0.0249743121 16.1448298,0.000653919368 C13.5026691,-0.0446575697 11.3608265,2.27052576 11.3608265,5.17105136 C11.3608265,5.58331744 11.4024077,5.98316358 11.4849326,6.36924392 C7.5062067,6.10377384 3.98050205,3.95633039 1.6221229,0.719049987 C1.21061459,1.49465801 0.974494307,2.4011003 0.974494307,3.3725229 C0.974494307,5.20982232 1.81914409,6.84278322 3.10244611,7.80639023 C2.31682071,7.76955546 1.58086049,7.52280973 0.935349668,7.1182884 L0.935349668,7.18577159 C0.935349668,9.75362727 2.5849353,11.9051084 4.773756,12.4071002 C4.37249497,12.5254437 3.94925921,12.5870239 3.51397719,12.5848043 C3.21154471,12.583183 2.91009495,12.5489503 2.61449303,12.4826587 C3.22268096,14.586963 4.99031535,16.124366 7.08299371,16.1755805 C5.44518107,17.5837312 3.3820149,18.424839 1.14204885,18.4189596 C0.755839955,18.4189596 0.374185411,18.3920891 0,18.3434011 C2.11802332,19.8498487 4.63218402,20.7272727 7.33489482,20.7272727 C16.1327608,20.7294441 20.9441129,12.7890956 20.9441129,5.8997895 C20.9441357,5.67297232 20.9399229,5.44872886 20.9302449,5.22602017 Z" id="ro"></path>
                </g>
            </g>
        </g>
    </g>
</svg>