<svg width="349" height="75" fill="none" xmlns="http://www.w3.org/2000/svg">
    <path d="M266.635 16.003c1.339-4.025-2.829-9.611-6.101-10.7-1.625-.54-3.518.897-4.308 3.273-.298.894-.3 1.559-.301 2.145-.002.537-.003 1-.218 1.646-.214.645-.491 1.017-.811 1.448-.35.47-.747 1.004-1.045 1.898-.79 2.376-.136 4.66 1.49 5.201 3.271 1.089 9.955-.887 11.294-4.912zM279.21 15.728c.624-1.876-1.14-4.095-4.016-5.052-2.876-.957-5.618-.237-6.242 1.639-.624 1.876 1.14 4.095 4.016 5.051 2.876.957 5.618.237 6.242-1.638zM276.539 23.756c.624-1.876-1.14-4.095-4.016-5.052-2.876-.956-5.618-.237-6.242 1.64-.624 1.875 1.14 4.094 4.016 5.05 2.876.958 5.618.238 6.242-1.638zM269.665 9.696c2.046-.428 3.21-1.878 2.934-3.242-.28-1.377-1.956-2.202-3.974-1.823-2.029.38-3.208 1.928-2.933 3.241.28 1.342 1.942 2.248 3.973 1.824zM265.69 27.22c1.039-.926.975-2.784-.407-4.352-1.372-1.557-3.245-1.827-4.274-.92-1.006.886-.99 2.832.407 4.352 1.389 1.512 3.226 1.856 4.274.92zM333.553 58.74c-1.2-4.07-7.811-6.273-11.118-5.298-1.644.484-2.376 2.745-1.668 5.147.266.904.645 1.45.978 1.933.306.441.57.822.762 1.475.192.652.178 1.115.161 1.652-.019.586-.04 1.25.226 2.154.709 2.402 2.551 3.904 4.194 3.42 3.307-.976 7.665-6.415 6.465-10.483zM343.718 51.331c-.559-1.896-3.274-2.71-6.182-1.852-2.907.857-4.747 3.014-4.188 4.91.56 1.896 3.275 2.71 6.183 1.853 2.907-.858 4.747-3.015 4.187-4.91zM346.112 59.447c-.56-1.896-3.275-2.71-6.183-1.853-2.907.858-4.747 3.015-4.187 4.91.559 1.897 3.274 2.71 6.182 1.853 2.907-.857 4.747-3.014 4.188-4.91zM332.438 51.832c1.435-1.52 1.563-3.375.557-4.336-1.016-.971-2.863-.691-4.303.772-1.449 1.472-1.532 3.416-.557 4.337.997.94 2.879.736 4.303-.773zM339.185 68.487c.323-1.353-.79-2.842-2.821-3.34-2.015-.495-3.707.354-4.033 1.686-.32 1.302.805 2.89 2.82 3.34 2.004.448 3.707-.32 4.034-1.686zM141.286 16.003c1.339-4.025-2.829-9.611-6.101-10.7-1.626-.54-3.518.897-4.309 3.273-.297.894-.299 1.559-.301 2.145-.001.537-.002 1-.217 1.646-.215.645-.491 1.017-.812 1.448-.35.47-.747 1.004-1.044 1.898-.79 2.376-.136 4.66 1.489 5.201 3.272 1.089 9.956-.887 11.295-4.912zM153.861 15.728c.624-1.876-1.14-4.095-4.016-5.052-2.877-.957-5.619-.237-6.243 1.639-.624 1.876 1.141 4.095 4.017 5.051 2.876.957 5.618.237 6.242-1.638zM151.19 23.756c.624-1.876-1.14-4.095-4.016-5.052-2.877-.956-5.618-.237-6.243 1.64-.624 1.875 1.141 4.094 4.017 5.05 2.876.958 5.618.238 6.242-1.638zM144.316 9.696c2.046-.428 3.21-1.878 2.933-3.242-.279-1.377-1.955-2.202-3.973-1.823-2.029.38-3.208 1.928-2.934 3.241.281 1.342 1.943 2.248 3.974 1.824zM140.341 27.22c1.038-.926.975-2.784-.407-4.352-1.372-1.557-3.246-1.827-4.274-.92-1.007.886-.99 2.832.407 4.352 1.389 1.512 3.225 1.856 4.274.92zM208.204 58.74c-1.2-4.07-7.812-6.273-11.119-5.298-1.643.484-2.376 2.745-1.667 5.147.266.904.644 1.45.978 1.933.305.441.569.822.762 1.475.192.652.177 1.115.16 1.652-.018.586-.039 1.25.227 2.154.708 2.402 2.55 3.904 4.194 3.42 3.307-.976 7.665-6.415 6.465-10.483zM218.369 51.331c-.559-1.896-3.275-2.71-6.182-1.852-2.908.857-4.747 3.014-4.188 4.91.559 1.896 3.275 2.71 6.182 1.853 2.908-.858 4.747-3.015 4.188-4.91zM220.762 59.447c-.559-1.896-3.274-2.71-6.182-1.853-2.907.858-4.747 3.015-4.188 4.91.559 1.897 3.275 2.71 6.182 1.853 2.908-.857 4.747-3.014 4.188-4.91zM207.089 51.832c1.435-1.52 1.562-3.375.556-4.336-1.015-.971-2.863-.691-4.303.772-1.448 1.472-1.532 3.416-.556 4.337.996.94 2.878.736 4.303-.773zM213.835 68.487c.324-1.353-.79-2.842-2.82-3.34-2.015-.495-3.707.354-4.034 1.686-.319 1.302.806 2.89 2.821 3.34 2.003.448 3.707-.32 4.033-1.686zM14.313 17.347c.588-4.201-4.522-8.94-7.937-9.418-1.697-.238-3.298 1.519-3.645 3.999-.13.932-.012 1.587.093 2.164.096.528.178.984.084 1.658-.094.673-.3 1.09-.536 1.57-.26.527-.553 1.123-.684 2.056-.347 2.48.71 4.609 2.407 4.846 3.415.478 9.63-2.675 10.218-6.875zM26.63 14.8c.275-1.958-1.862-3.821-4.864-4.241-3.002-.42-5.568.784-5.842 2.741-.274 1.958 1.863 3.821 4.864 4.241 3.003.42 5.569-.784 5.843-2.741zM25.458 23.179c.274-1.958-1.863-3.82-4.865-4.241-3.002-.42-5.568.784-5.842 2.742-.274 1.957 1.862 3.82 4.864 4.24 3.002.421 5.569-.783 5.843-2.741zM16.151 10.596c1.935-.792 2.817-2.428 2.299-3.72-.524-1.303-2.322-1.811-4.238-1.074-1.927.742-2.806 2.478-2.299 3.72.52 1.268 2.318 1.859 4.238 1.074zM15.415 28.55c.853-1.099.455-2.915-1.189-4.207-1.63-1.282-3.522-1.209-4.37-.131-.829 1.054-.46 2.965 1.189 4.207 1.64 1.236 3.508 1.24 4.37.131zM74.502 60.437c-.597-4.2-6.82-7.34-10.233-6.854-1.696.241-2.749 2.372-2.396 4.852.132.932.427 1.528.688 2.053.238.481.444.897.54 1.57.095.673.013 1.13-.081 1.658-.104.578-.22 1.232-.088 2.164.352 2.48 1.957 4.233 3.653 3.991 3.414-.485 8.514-5.235 7.917-9.434zM85.634 54.58c-.278-1.957-2.847-3.155-5.848-2.729-3.001.427-5.134 2.294-4.856 4.252.279 1.957 2.847 3.156 5.848 2.729 3.001-.427 5.134-2.294 4.856-4.252zM86.825 62.957c-.278-1.957-2.847-3.156-5.848-2.729-3.001.427-5.134 2.294-4.856 4.252.279 1.957 2.848 3.155 5.849 2.729 3-.427 5.134-2.294 4.855-4.252zM74.4 53.44c1.64-1.295 2.035-3.112 1.18-4.21-.865-1.107-2.733-1.098-4.37.141-1.646 1.246-2.01 3.157-1.18 4.21.85 1.076 2.742 1.146 4.37-.14zM78.66 70.898c.517-1.292-.369-2.927-2.305-3.714-1.922-.781-3.72-.187-4.236 1.083-.505 1.243.378 2.976 2.306 3.714 1.918.734 3.715.222 4.236-1.083z" fill="#FF5B2E"/>
</svg>
